Coordinates
version=1
nRows=5
nColumns=63
inDegrees=yes

Units are S.I. units (second, meters, Newtons, ...)
If the header above contains a line with 'inDegrees', this indicates whether rotational values are in degrees (yes) or radians (no).

endheader
time	pelvis_tilt	pelvis_list	pelvis_rotation	pelvis_tx	pelvis_ty	pelvis_tz	hip_flexion_r	hip_adduction_r	hip_rotation_r	knee_angle_r	knee_angle_r_beta	ankle_angle_r	subtalar_angle_r	mtp_angle_r	hip_flexion_l	hip_adduction_l	hip_rotation_l	knee_angle_l	knee_angle_l_beta	ankle_angle_l	subtalar_angle_l	mtp_angle_l	L5_S1_Flex_Ext	L5_S1_Lat_Bending	L5_S1_axial_rotation	L4_L5_Flex_Ext	L4_L5_Lat_Bending	L4_L5_axial_rotation	L3_L4_Flex_Ext	L3_L4_Lat_Bending	L3_L4_axial_rotation	L2_L3_Flex_Ext	L2_L3_Lat_Bending	L2_L3_axial_rotation	L1_L2_Flex_Ext	L1_L2_Lat_Bending	L1_L2_axial_rotation	L1_T12_Flex_Ext	L1_T12_Lat_Bending	L1_T12_axial_rotation	Abs_r3	Abs_r2	Abs_r1	Abs_t1	Abs_t2	neck_flexion	neck_bending	neck_rotation	arm_flex_r	arm_add_r	arm_rot_r	elbow_flex_r	pro_sup_r	wrist_flex_r	wrist_dev_r	arm_flex_l	arm_add_l	arm_rot_l	elbow_flex_l	pro_sup_l	wrist_flex_l	wrist_dev_l
      0.00000000	      3.82392484	     -4.18338670	     81.34166926	      0.22632290	      0.94709168	      0.49544233	      9.64192025	      8.87164768	      9.83327794	     12.26150382	      0.21400361	     25.34268916	    -17.19356651	      0.00000000	     15.97745209	     -5.20709951	      3.40225375	     24.63269823	      0.42992169	     35.80350364	    -14.25301447	      0.00000000	      0.11620693	      0.75673780	      0.49948782	      0.21580789	      1.00646127	      0.53070581	      0.19091636	      1.83993228	      0.53070581	      0.13281290	      1.83993228	      0.43705184	      0.10790975	      1.54313971	      0.40583385	      0.06640064	      1.17218685	      0.37461587	      0.83005447	      8.56036930	      2.77800142	      0.00000000	      0.00000000	     26.27546860	     -0.38896549	      5.23576374	     16.72793552	     -3.18763322	     76.10802948	     26.34704494	     85.79916966	    -12.01626262	    -10.66889701	     14.56750593	      4.75028355	     72.81554560	     30.10618601	     87.88231303	    -11.44960545	     -3.33987756
      0.01666667	      3.40232265	     -4.58333982	     80.13525854	      0.22892236	      0.94521624	      0.49461498	     11.13583207	      8.95635349	     10.69615318	     14.69882453	      0.25654288	     25.78442285	    -17.50486519	      0.00000000	     15.51224805	     -5.20304134	      2.02138374	     23.58068898	      0.41156066	     35.82113042	    -14.98112029	      0.00000000	      0.10853575	      0.70113439	      0.76987761	      0.20156174	      0.93250874	      0.81799496	      0.17831338	      1.70473815	      0.81799496	      0.12404551	      1.70473815	      0.67364291	      0.10078630	      1.42975325	      0.62552556	      0.06201733	      1.08605717	      0.57740821	      0.77526001	      7.93137244	      4.28182829	      0.00000000	      0.00000000	     25.64994636	     -0.46996082	      4.29800535	     17.24576200	     -2.67358177	     79.49499455	     25.19887049	     87.38142492	    -13.50807544	     -9.13230412	     13.77928621	      4.58798507	     71.26390605	     29.57301645	     87.02610350	     -9.81070274	     -2.41899278
      0.03333333	      3.03731562	     -4.87567116	     79.41159938	      0.23067747	      0.94335023	      0.49420529	     12.51371734	      9.01550677	     11.23951496	     16.96390602	      0.29607601	     26.31393554	    -17.90322602	      0.00000000	     15.27891210	     -5.18665658	      0.75032514	     22.88647316	      0.39944431	     36.14129814	    -14.80870315	      0.00000000	      0.08694412	      0.65525310	      0.88095832	      0.16146393	      0.87148662	      0.93601822	      0.14284050	      1.59318238	      0.93601822	      0.09936844	      1.59318238	      0.77083853	      0.08073631	      1.33619211	      0.71577864	      0.04967987	      1.01498705	      0.66071874	      0.62103317	      7.41235407	      4.89962590	      0.00000000	      0.00000000	     25.30469016	     -0.40185235	      4.09236033	     19.62268577	     -0.85744810	     93.61664212	     21.89009304	     87.23024312	    -17.40388165	     -9.55502685	     13.14448593	      4.27349369	     69.70383310	     29.46187286	     86.81429362	     -9.06739606	     -1.63453622
      0.05000000	      3.04652860	     -5.31641925	     79.18235541	      0.23077066	      0.94084282	      0.49437270	     14.16789477	      9.32414979	     11.07671975	     19.32722815	      0.33732377	     26.93245472	    -18.17965809	      0.00000000	     15.78486077	     -5.36069624	      0.35278869	     23.10710407	      0.40329505	     36.58579680	    -15.02790660	      0.00000000	      0.06977405	      0.66436436	      0.99547334	      0.12957738	      0.88360459	      1.05769042	      0.11463178	      1.61533550	      1.05769042	      0.07974476	      1.61533550	      0.87103917	      0.06479218	      1.35477180	      0.80882209	      0.03986889	      1.02910039	      0.74660500	      0.49838904	      7.51542248	      5.53652407	      0.00000000	      0.00000000	     25.61321154	     -0.86194919	      3.59811613	     19.68965665	     -0.76647403	     95.70084457	     21.65056888	     87.89353357	    -17.32943681	     -8.85542488	     13.04462239	      4.39824748	     69.53711100	     29.25701106	     86.45428236	     -8.65938947	     -1.11336769
      0.06666667	      1.87151808	     -5.75761325	     78.49983450	      0.23358636	      0.93852116	      0.49460116	     16.09148894	      8.73397304	     11.88970702	     21.86793539	      0.38166747	     28.05727757	    -18.41530371	      0.00000000	     16.19069875	     -4.65921940	     -1.10580513	     22.88049666	      0.39934000	     36.83492381	    -14.31796417	      0.00000000	      0.09152111	      0.48422749	      1.17404169	      0.16996386	      0.64402256	      1.24741930	      0.15036004	      1.17735071	      1.24741930	      0.10459948	      1.17735071	      1.02728648	      0.08498651	      0.98743669	      0.95390887	      0.05229516	      0.75006838	      0.88053127	      0.65372616	      5.47767816	      6.52966767	      0.00000000	      0.00000000	     25.96107610	     -0.64246267	      1.28078440	     19.16528167	      8.82050567	    205.08413054	      0.29097169	     27.28442462	    -20.11095747	     -9.98207796	     12.76620299	      3.43901872	     69.15942018	     29.78759754	     86.54467419	     -8.27029883	     -0.47917337
